<svg xmlns="http://www.w3.org/2000/svg" viewBox="0 0 800 800" role="img" aria-labelledby="t d">
<title id="t">Fone Buds Max</title>
<desc id="d">Arte fictícia para Fone Buds Max</desc>
<defs>
  <linearGradient id="bg" x1="0" y1="0" x2="1" y2="1">
    <stop offset="0%" stop-color="#0d0d10"/>
    <stop offset="100%" stop-color="#1b1b21"/>
  </linearGradient>
  <linearGradient id="glow" x1="0" y1="0" x2="1" y2="1">
    <stop offset="0%" stop-color="#c60f23" stop-opacity=".95"/>
    <stop offset="100%" stop-color="#d6a84f" stop-opacity=".88"/>
  </linearGradient>
</defs>
<rect width="800" height="800" rx="48" fill="url(#bg)"/>
<circle cx="670" cy="120" r="120" fill="#d6a84f" opacity=".10"/>
<circle cx="120" cy="700" r="150" fill="#c60f23" opacity=".12"/>
<rect x="60" y="60" width="680" height="680" rx="36" fill="none" stroke="#d6a84f" stroke-opacity=".12"/>
<path d="M310 260c65 0 105 45 105 120v55c0 38-22 60-50 60-32 0-56-24-56-56v-90c0-22 16-35 36-35 16 0 30 9 36 24" fill="none" stroke="url(#glow)" stroke-width="34" stroke-linecap="round"/>
        <path d="M490 260c-65 0-105 45-105 120v55c0 38 22 60 50 60 32 0 56-24 56-56v-90c0-22-16-35-36-35-16 0-30 9-36 24" fill="none" stroke="url(#glow)" stroke-width="34" stroke-linecap="round"/>
        
<text x="70" y="685" font-family="Inter,Segoe UI,Arial,sans-serif" font-size="42" fill="#f6efdf" font-weight="800">Fone Buds Max</text>
<text x="70" y="728" font-family="Inter,Segoe UI,Arial,sans-serif" font-size="22" fill="#b7af9b">Som e conforto</text>
</svg>