<svg xmlns="http://www.w3.org/2000/svg" viewBox="0 0 800 800" role="img" aria-labelledby="t d">
<title id="t">Luminária Orbit</title>
<desc id="d">Arte fictícia para Luminária Orbit</desc>
<defs>
  <linearGradient id="bg" x1="0" y1="0" x2="1" y2="1">
    <stop offset="0%" stop-color="#0d0d10"/>
    <stop offset="100%" stop-color="#1b1b21"/>
  </linearGradient>
  <linearGradient id="glow" x1="0" y1="0" x2="1" y2="1">
    <stop offset="0%" stop-color="#c60f23" stop-opacity=".95"/>
    <stop offset="100%" stop-color="#d6a84f" stop-opacity=".88"/>
  </linearGradient>
</defs>
<rect width="800" height="800" rx="48" fill="url(#bg)"/>
<circle cx="670" cy="120" r="120" fill="#d6a84f" opacity=".10"/>
<circle cx="120" cy="700" r="150" fill="#c60f23" opacity=".12"/>
<rect x="60" y="60" width="680" height="680" rx="36" fill="none" stroke="#d6a84f" stroke-opacity=".12"/>
<path d="M295 300c0-75 50-130 105-130s105 55 105 130c0 55-28 97-70 120v50h-70v-50c-42-23-70-65-70-120z" fill="url(#glow)"/>
        <rect x="355" y="470" width="90" height="70" rx="12" fill="#f2e2c0" opacity=".35"/>
        <rect x="320" y="540" width="160" height="30" rx="15" fill="#7d5311"/>
        
<text x="70" y="685" font-family="Inter,Segoe UI,Arial,sans-serif" font-size="42" fill="#f6efdf" font-weight="800">Luminária Orbit</text>
<text x="70" y="728" font-family="Inter,Segoe UI,Arial,sans-serif" font-size="22" fill="#b7af9b">Design contemporâneo</text>
</svg>